<svg width="18" height="18" viewBox="0 0 18 18" fill="none" xmlns="http://www.w3.org/2000/svg">
<g clip-path="url(#clip0_3472_2151)">
<path d="M10.2917 7.58333C9.54175 7.58333 8.80867 7.36096 8.18513 6.94432C7.56159 6.52769 7.07561 5.93551 6.78863 5.24268C6.50164 4.54984 6.42656 3.78746 6.57286 3.05195C6.71916 2.31644 7.08028 1.64083 7.61056 1.11056C8.14083 0.580281 8.81644 0.21916 9.55195 0.0728575C10.2875 -0.0734448 11.0498 0.0016429 11.7427 0.288625C12.4355 0.575607 13.0277 1.06159 13.4443 1.68513C13.861 2.30867 14.0833 3.04175 14.0833 3.79167C14.0821 4.79691 13.6822 5.76062 12.9714 6.47144C12.2606 7.18225 11.2969 7.58212 10.2917 7.58333ZM10.2917 1.08333C9.75601 1.08333 9.23238 1.24218 8.787 1.53977C8.34162 1.83737 7.99448 2.26035 7.78949 2.75523C7.58451 3.25012 7.53087 3.79467 7.63537 4.32004C7.73988 4.8454 7.99782 5.32798 8.37659 5.70675C8.75535 6.08552 9.23793 6.34346 9.7633 6.44796C10.2887 6.55246 10.8332 6.49883 11.3281 6.29384C11.823 6.08885 12.246 5.74172 12.5436 5.29634C12.8412 4.85095 13 4.32733 13 3.79167C12.9992 3.07363 12.7135 2.38525 12.2058 1.87752C11.6981 1.36979 11.0097 1.08418 10.2917 1.08333Z" fill="#EACC99"/>
<path d="M15.709 17.3333H4.87565C4.73199 17.3333 4.59422 17.2763 4.49263 17.1747C4.39105 17.0731 4.33398 16.9353 4.33398 16.7917V16.7158C4.334 16.6202 4.35932 16.5263 4.40738 16.4437C4.45543 16.361 4.5245 16.2926 4.60758 16.2452C4.69066 16.1979 4.78478 16.1734 4.88038 16.1743C4.97598 16.1751 5.06966 16.2012 5.1519 16.25H15.1673V12.0521C15.1659 10.8673 14.6946 9.73153 13.8569 8.89378C13.0191 8.05604 11.8833 7.58477 10.6986 7.58333H9.88607C8.8522 7.58314 7.85023 7.9413 7.05077 8.59685C6.9395 8.68401 6.79857 8.72423 6.65806 8.70893C6.51755 8.69362 6.38859 8.62399 6.2987 8.51491C6.20882 8.40583 6.16513 8.26594 6.17696 8.12509C6.18879 7.98425 6.25521 7.85361 6.36204 7.76105C7.35545 6.94567 8.60088 6.50001 9.88607 6.5H10.6986C12.1706 6.50159 13.5819 7.08705 14.6227 8.12793C15.6636 9.1688 16.2491 10.5801 16.2507 12.0521V16.7917C16.2507 16.9353 16.1936 17.0731 16.092 17.1747C15.9904 17.2763 15.8526 17.3333 15.709 17.3333Z" fill="#EACC99"/>
<path d="M13.0007 17.3335C12.857 17.3335 12.7192 17.2764 12.6176 17.1748C12.5161 17.0733 12.459 16.9355 12.459 16.7918V11.3752C12.459 11.2315 12.5161 11.0937 12.6176 10.9921C12.7192 10.8906 12.857 10.8335 13.0007 10.8335C13.1443 10.8335 13.2821 10.8906 13.3837 10.9921C13.4852 11.0937 13.5423 11.2315 13.5423 11.3752V16.7918C13.5423 16.9355 13.4852 17.0733 13.3837 17.1748C13.2821 17.2764 13.1443 17.3335 13.0007 17.3335Z" fill="#EACC99"/>
<path d="M7.58366 17.3333C7.44 17.3333 7.30222 17.2762 7.20064 17.1746C7.09906 17.073 7.04199 16.9353 7.04199 16.7916V15.8112C7.04199 15.6675 7.09906 15.5298 7.20064 15.4282C7.30222 15.3266 7.44 15.2695 7.58366 15.2695C7.72732 15.2695 7.86509 15.3266 7.96667 15.4282C8.06826 15.5298 8.12533 15.6675 8.12533 15.8112V16.7916C8.12533 16.9353 8.06826 17.073 7.96667 17.1746C7.86509 17.2762 7.72732 17.3333 7.58366 17.3333Z" fill="#EACC99"/>
<path d="M5.25169 17.3338C5.22479 17.3338 5.19793 17.3318 5.1713 17.328C4.72172 17.2603 2.43047 16.8266 1.47112 14.9196C1.1973 14.3714 1.06424 13.7637 1.08394 13.1513V8.8703C1.0838 8.75521 1.1204 8.64308 1.1884 8.55023C1.2564 8.45737 1.35226 8.38864 1.46202 8.35404L5.0881 7.20776C5.19444 7.17391 5.30866 7.17391 5.415 7.20776L9.04113 8.35404C9.15092 8.38862 9.2468 8.45734 9.31482 8.5502C9.38284 8.64305 9.41945 8.7552 9.41932 8.8703V13.165C9.43758 13.7728 9.30454 14.3755 9.03214 14.9191C8.07339 16.8258 5.7816 17.2603 5.33196 17.328C5.30537 17.3318 5.27855 17.3338 5.25169 17.3338ZM2.16727 9.26702V13.165C2.15083 13.6039 2.24428 14.0399 2.43914 14.4335C3.11676 15.7797 4.82003 16.1654 5.25169 16.2431C5.68334 16.1654 7.38715 15.7797 8.06424 14.4335C8.25764 14.0443 8.35107 13.6131 8.3361 13.1788V9.26702L5.25169 8.29202L2.16727 9.26702Z" fill="#EACC99"/>
<path d="M5.02911 13.5734C4.95796 13.5735 4.88749 13.5595 4.82176 13.5323C4.75603 13.505 4.69633 13.4651 4.6461 13.4147L3.52788 12.2964C3.42885 12.1943 3.37394 12.0573 3.37502 11.9151C3.37609 11.7729 3.43307 11.6368 3.53364 11.5362C3.63421 11.4356 3.7703 11.3786 3.91253 11.3776C4.05476 11.3765 4.19171 11.4314 4.2938 11.5304L5.02911 12.2657L6.75567 10.5391C6.80564 10.4874 6.86541 10.4461 6.9315 10.4178C6.99758 10.3894 7.06866 10.3744 7.14058 10.3738C7.2125 10.3732 7.28383 10.3869 7.3504 10.4141C7.41697 10.4414 7.47745 10.4816 7.52831 10.5324C7.57916 10.5833 7.61938 10.6438 7.64662 10.7103C7.67386 10.7769 7.68756 10.8482 7.68694 10.9202C7.68631 10.9921 7.67137 11.0632 7.64298 11.1292C7.61459 11.1953 7.57333 11.2551 7.52159 11.3051L5.41207 13.4147C5.36185 13.4651 5.30216 13.505 5.23644 13.5323C5.17071 13.5595 5.10026 13.5735 5.02911 13.5734Z" fill="#EACC99"/>
</g>
<defs>
<clipPath id="clip0_3472_2151">
<rect width="17.3333" height="17.3333" fill="white"/>
</clipPath>
</defs>
</svg>
