<svg width="60" height="60" viewBox="0 0 60 60" fill="none" xmlns="http://www.w3.org/2000/svg">
<path d="M24.8425 46.1807C24.5777 46.1813 24.3138 46.1475 24.0577 46.0802C22.7782 45.738 21.935 44.5867 21.1914 43.5707C20.7812 42.9103 20.2507 42.3327 19.6274 41.868C18.9011 41.5514 18.1214 41.3748 17.3296 41.3475C16.0323 41.2024 14.6855 41.0532 13.7669 40.1313C12.8482 39.2094 12.6982 37.8683 12.5506 36.5686C12.5234 35.7769 12.3474 34.9973 12.0317 34.2707C11.5665 33.6479 10.989 33.1175 10.329 32.7067C9.31226 31.9632 8.16091 31.1191 7.81956 29.8405C7.49118 28.6121 8.02631 27.3878 8.54523 26.204C8.924 25.4864 9.16543 24.7043 9.25712 23.898C9.16543 23.0918 8.924 22.3097 8.54523 21.5921C8.02631 20.4083 7.49118 19.1848 7.81956 17.9564C8.16091 16.677 9.31226 15.8337 10.3282 15.0902C10.9882 14.6794 11.5657 14.149 12.0309 13.5262C12.3468 12.7996 12.5231 12.0201 12.5506 11.2283C12.6958 9.93102 12.8458 8.58507 13.7669 7.66642C14.6879 6.74777 16.0306 6.59777 17.3296 6.45021C18.1214 6.42295 18.9011 6.24634 19.6274 5.92967C20.2509 5.46496 20.7817 4.8874 21.1923 4.22696C21.9358 3.21102 22.779 2.05967 24.0577 1.71831C25.2852 1.38912 26.5104 1.92507 27.6942 2.44399C28.4111 2.82492 29.1929 3.06855 29.9993 3.16237C30.8055 3.07068 31.5876 2.82924 32.3052 2.45048C33.489 1.93237 34.7158 1.39642 35.9409 1.7248C37.2204 2.06615 38.0636 3.21831 38.8071 4.23831C39.2178 4.89841 39.7482 5.4759 40.3712 5.94102C41.0976 6.25739 41.8772 6.43372 42.669 6.46075C43.9663 6.60588 45.3131 6.75588 46.2317 7.67696C47.1504 8.59804 47.3004 9.93994 47.4479 11.2397C47.4753 12.0314 47.6513 12.8109 47.9669 13.5375C48.4323 14.1599 49.0097 14.69 49.6696 15.1007C50.6863 15.8451 51.8377 16.6883 52.179 17.9678C52.5074 19.1962 51.9723 20.4205 51.4533 21.6043C51.0745 22.3216 50.833 23.1034 50.7414 23.9094C50.8331 24.7157 51.0746 25.4977 51.4533 26.2153C51.9723 27.3991 52.5074 28.6226 52.179 29.851C51.8377 31.1305 50.6863 31.9737 49.6704 32.718C49.0101 33.1285 48.4326 33.659 47.9677 34.2821C47.6517 35.0086 47.4754 35.7882 47.4479 36.5799C47.3028 37.8772 47.1528 39.2232 46.2317 40.1418C45.3106 41.0605 43.9679 41.2105 42.669 41.358C41.8772 41.3851 41.0976 41.5614 40.3712 41.8778C39.7477 42.3425 39.2169 42.92 38.8063 43.5805C38.0628 44.5964 37.2196 45.7478 35.9409 46.0891C34.7117 46.4134 33.4882 45.8824 32.3044 45.3643C31.5877 44.9822 30.8059 44.7375 29.9993 44.6426C29.193 44.7343 28.411 44.9758 27.6933 45.3545C26.8085 45.8193 25.8388 46.1003 24.8425 46.1807ZM29.9993 43.0186C31.032 43.0965 32.038 43.3846 32.9555 43.8651C33.9285 44.2899 34.8406 44.6913 35.5225 44.5137C36.2523 44.3191 36.8563 43.4905 37.4993 42.6132C38.0322 41.7625 38.7333 41.0297 39.5596 40.4597C40.4765 40.0197 41.4736 39.7714 42.4898 39.7299C43.5593 39.6107 44.5687 39.498 45.0844 38.9816C45.6001 38.4651 45.7144 37.4548 45.8328 36.387C45.8737 35.3707 46.1221 34.3735 46.5625 33.4567C47.1313 32.6311 47.8624 31.9301 48.7112 31.3964C49.5885 30.7543 50.4139 30.147 50.6125 29.4197C50.7933 28.7402 50.392 27.8232 49.9639 26.8526C49.4828 25.9353 49.1942 24.9293 49.1158 23.8964C49.1938 22.8637 49.4824 21.8579 49.9639 20.941C50.3887 19.968 50.7901 19.0534 50.6085 18.3732C50.4147 17.6434 49.5852 17.0386 48.7071 16.3964C47.8584 15.8628 47.1273 15.1618 46.5585 14.3362C46.1181 13.4196 45.8698 12.4227 45.8287 11.4067C45.7096 10.3372 45.5969 9.32777 45.0796 8.8121C44.5623 8.29642 43.5536 8.18291 42.485 8.06372C41.4687 8.02227 40.4717 7.77397 39.5547 7.33399C38.7312 6.76586 38.0319 6.03621 37.4993 5.18939C36.8563 4.3121 36.2498 3.48669 35.5225 3.28885C34.8455 3.10804 33.926 3.50858 32.9555 3.9375C32.038 4.41807 31.0321 4.70613 29.9993 4.78399C28.9662 4.70461 27.9602 4.4149 27.0431 3.93264C26.0701 3.50777 25.1547 3.10642 24.476 3.28804C23.7463 3.48183 23.1423 4.31129 22.4993 5.18858C21.9658 6.03792 21.2648 6.76958 20.439 7.33885C19.522 7.77883 18.525 8.02714 17.5087 8.06858C16.4393 8.18777 15.4298 8.29966 14.9141 8.81696C14.3985 9.33426 14.285 10.3429 14.1658 11.4116C14.1248 12.4281 13.8765 13.4255 13.436 14.3426C12.8672 15.1682 12.1361 15.8693 11.2874 16.4029C10.4093 17.0451 9.58064 17.6524 9.38604 18.3789C9.20523 19.0583 9.60658 19.9753 10.0347 20.9459C10.5157 21.8633 10.8043 22.8692 10.8828 23.9021C10.8047 24.935 10.5161 25.9411 10.0347 26.8583C9.60983 27.8313 9.20847 28.7459 9.3901 29.4262C9.58388 30.1559 10.4133 30.7599 11.2914 31.4029C12.14 31.9364 12.8711 32.6371 13.4401 33.4624C13.8805 34.3792 14.1288 35.3764 14.1698 36.3926C14.289 37.4621 14.4017 38.4716 14.919 38.9872C15.4363 39.5029 16.445 39.6164 17.5136 39.7356C18.5298 39.7774 19.5268 40.0257 20.4439 40.4653C21.2691 41.0346 21.9699 41.766 22.5033 42.6148C23.1463 43.4921 23.7528 44.3175 24.4801 44.5153C25.1596 44.6978 26.0758 44.2956 27.0471 43.8667C27.9634 43.387 28.968 43.0993 29.9993 43.021V43.0186Z" fill="#EACC99"/>
<path d="M29.9992 39.4652C26.9202 39.4652 23.9104 38.5522 21.3503 36.8416C18.7903 35.131 16.7949 32.6997 15.6167 29.8551C14.4384 27.0105 14.1301 23.8804 14.7308 20.8606C15.3315 17.8408 16.8141 15.0669 18.9913 12.8897C21.1684 10.7126 23.9423 9.22989 26.9621 8.62921C29.9819 8.02853 33.1121 8.33682 35.9567 9.5151C38.8013 10.6934 41.2326 12.6887 42.9432 15.2488C44.6538 17.8088 45.5668 20.8187 45.5668 23.8977C45.5627 28.0252 43.9212 31.9825 41.0026 34.9011C38.084 37.8197 34.1267 39.4611 29.9992 39.4652ZM29.9992 9.95657C27.241 9.95657 24.5447 10.7745 22.2513 12.3069C19.9579 13.8393 18.1704 16.0173 17.1148 18.5656C16.0593 21.1139 15.7831 23.918 16.3212 26.6232C16.8593 29.3285 18.1876 31.8134 20.1379 33.7638C22.0883 35.7142 24.5732 37.0424 27.2785 37.5805C29.9837 38.1186 32.7878 37.8424 35.3361 36.7869C37.8844 35.7314 40.0624 33.9439 41.5948 31.6505C43.1272 29.3571 43.9452 26.6608 43.9452 23.9025C43.9415 20.2049 42.471 16.6599 39.8565 14.0453C37.2419 11.4307 33.6968 9.96022 29.9992 9.95657Z" fill="#EACC99"/>
<path d="M34.6814 31.033C34.55 31.033 34.4206 31.001 34.3044 30.9398L29.9998 28.6768L25.6952 30.9398C25.5609 31.0105 25.4096 31.0422 25.2582 31.0312C25.1069 31.0202 24.9617 30.9669 24.8391 30.8775C24.7165 30.788 24.6215 30.6659 24.5649 30.5252C24.5082 30.3844 24.4922 30.2306 24.5187 30.0811L25.3409 25.2868L21.8544 21.8928C21.7459 21.7871 21.6693 21.6532 21.633 21.5063C21.5967 21.3593 21.6023 21.2051 21.6491 21.0612C21.696 20.9172 21.7822 20.7893 21.898 20.6918C22.0138 20.5943 22.1545 20.5311 22.3044 20.5095L27.1165 19.8098L29.27 15.4525C29.3445 15.3261 29.4508 15.2213 29.5782 15.1485C29.7056 15.0757 29.8498 15.0374 29.9965 15.0374C30.1433 15.0374 30.2875 15.0757 30.4149 15.1485C30.5423 15.2213 30.6485 15.3261 30.723 15.4525L32.8765 19.8138L37.6887 20.5136C37.8385 20.5352 37.9793 20.5983 38.0951 20.6958C38.2109 20.7933 38.2971 20.9213 38.3439 21.0652C38.3907 21.2092 38.3963 21.3634 38.3601 21.5103C38.3238 21.6573 38.2471 21.7912 38.1387 21.8968L34.6522 25.2909L35.4809 30.0811C35.5008 30.1975 35.4951 30.3169 35.4641 30.4309C35.4331 30.5448 35.3776 30.6507 35.3015 30.7409C35.2254 30.8312 35.1304 30.9038 35.0233 30.9535C34.9162 31.0033 34.7995 31.029 34.6814 31.029V31.033ZM29.9998 26.9498C30.1314 26.9497 30.2611 26.9817 30.3776 27.043L33.6046 28.7401L32.9892 25.1449C32.967 25.0154 32.9765 24.8824 33.0171 24.7574C33.0576 24.6324 33.1279 24.5192 33.2219 24.4274L35.8327 21.8822L32.2246 21.3576C32.0945 21.3386 31.9709 21.2883 31.8645 21.2109C31.7581 21.1335 31.6722 21.0313 31.6141 20.9133L29.9998 17.6433L28.3854 20.9133C28.3274 21.0313 28.2414 21.1335 28.1351 21.2109C28.0287 21.2883 27.9051 21.3386 27.7749 21.3576L24.1668 21.8822L26.7776 24.4274C26.8716 24.5192 26.942 24.6324 26.9825 24.7574C27.023 24.8824 27.0326 25.0154 27.0103 25.1449L26.3949 28.7401L29.6219 27.043C29.7384 26.9817 29.8681 26.9497 29.9998 26.9498Z" fill="#EACC99"/>
<path d="M36.2829 58.3782C36.2585 58.3782 36.2334 58.3782 36.2091 58.3782C36.057 58.3643 35.912 58.3078 35.7906 58.2151C35.6693 58.1225 35.5765 57.9974 35.5231 57.8544L30.4856 44.3512C30.4514 44.2607 30.4338 44.1649 30.4337 44.0682C30.4311 43.8708 30.5006 43.6793 30.6292 43.5295C30.7577 43.3797 30.9365 43.282 31.132 43.2546C31.3275 43.2272 31.5263 43.2721 31.691 43.3809C31.8558 43.4896 31.9752 43.6547 32.0269 43.8452L36.4531 55.7025L39.6866 50.2928C39.7811 50.1348 39.9264 50.0137 40.0988 49.9493C40.2712 49.8849 40.4604 49.8811 40.6353 49.9384L46.6353 51.9055L42.4604 40.7422C42.3905 40.5421 42.4018 40.3225 42.4918 40.1306C42.5818 39.9386 42.7434 39.7896 42.942 39.7154C43.1406 39.6412 43.3604 39.6477 43.5542 39.7335C43.7481 39.8194 43.9006 39.9777 43.9791 40.1747L48.7426 52.919C48.796 53.062 48.8079 53.2172 48.777 53.3667C48.746 53.5161 48.6736 53.6539 48.5679 53.764C48.4621 53.8741 48.3275 53.9521 48.1794 53.9891C48.0313 54.0261 47.8758 54.0205 47.7307 53.973L40.7464 51.6825L36.9785 57.9841C36.9065 58.1043 36.8046 58.2038 36.6826 58.2729C36.5607 58.3419 36.423 58.3782 36.2829 58.3782Z" fill="#EACC99"/>
<path d="M23.716 58.379C23.5758 58.3789 23.438 58.3425 23.3161 58.2733C23.1941 58.2041 23.0922 58.1045 23.0203 57.9841L19.2525 51.6825L12.2681 53.973C12.1231 54.0205 11.9675 54.0261 11.8194 53.9891C11.6713 53.9521 11.5367 53.8741 11.431 53.764C11.3253 53.6539 11.2528 53.5161 11.2219 53.3667C11.191 53.2172 11.2029 53.062 11.2562 52.919L16.0198 40.1747C16.0983 39.9777 16.2508 39.8194 16.4446 39.7335C16.6385 39.6477 16.8582 39.6412 17.0568 39.7154C17.2554 39.7896 17.417 39.9386 17.507 40.1306C17.5971 40.3225 17.6083 40.5421 17.5384 40.7422L13.3652 51.9071L19.3652 49.9401C19.54 49.8827 19.7292 49.8865 19.9016 49.9509C20.074 50.0153 20.2194 50.1364 20.3138 50.2944L23.5457 55.7033L27.9938 43.7844C28.0294 43.6825 28.085 43.5887 28.1573 43.5085C28.2297 43.4284 28.3172 43.3635 28.415 43.3177C28.5127 43.2718 28.6186 43.246 28.7265 43.2416C28.8344 43.2372 28.942 43.2545 29.0431 43.2922C29.1443 43.33 29.2368 43.3876 29.3154 43.4617C29.3939 43.5357 29.4569 43.6247 29.5006 43.7234C29.5444 43.8221 29.5679 43.9286 29.57 44.0365C29.572 44.1444 29.5524 44.2517 29.5125 44.352L24.4757 57.852C24.4223 57.995 24.3296 58.12 24.2082 58.2127C24.0869 58.3054 23.9418 58.3619 23.7898 58.3757C23.7654 58.379 23.7403 58.379 23.716 58.379Z" fill="#EACC99"/>
</svg>
