<svg width="16" height="17" viewBox="0 0 16 17" fill="none" xmlns="http://www.w3.org/2000/svg">
<path d="M15.4877 4.17875C15.389 2.53656 14.0177 1.25 12.3661 1.25H11.5621V0.625C11.5621 0.28 11.2821 0 10.9371 0C10.5921 0 10.3121 0.28 10.3121 0.625V1.25H5.31208V0.625C5.31208 0.28 5.03208 0 4.68708 0C4.34208 0 4.06208 0.28 4.06208 0.625V1.25H3.25802C1.60614 1.25 0.234891 2.53656 0.136453 4.17875C-0.0488593 7.2675 -0.0454218 10.4006 0.146766 13.4909C0.244266 15.0603 1.50145 16.3175 3.07083 16.415C4.64364 16.5128 6.2277 16.5616 7.81177 16.5616C9.39552 16.5616 10.9799 16.5128 12.5527 16.415C14.1221 16.3175 15.3793 15.0603 15.4768 13.4909C15.6693 10.4022 15.6727 7.26938 15.4877 4.17875ZM14.2296 13.4134C14.1708 14.355 13.4168 15.1091 12.4755 15.1675C9.38114 15.3597 6.24302 15.3597 3.14864 15.1675C2.20708 15.1087 1.45302 14.3547 1.39458 13.4134C1.24677 11.0375 1.21645 8.63656 1.29552 6.25H14.329C14.4077 8.6375 14.3774 11.0384 14.2296 13.4134ZM4.68708 3.75C5.03208 3.75 5.31208 3.47 5.31208 3.125V2.5H10.3121V3.125C10.3121 3.47 10.5921 3.75 10.9371 3.75C11.2821 3.75 11.5621 3.47 11.5621 3.125V2.5H12.3661C13.3577 2.5 14.1808 3.27031 14.2399 4.25344C14.2546 4.50156 14.2608 4.75125 14.273 5H1.35114C1.36364 4.75125 1.36958 4.50156 1.38427 4.25344C1.44333 3.27031 2.26614 2.5 3.25802 2.5H4.06208V3.125C4.06208 3.47 4.34208 3.75 4.68708 3.75Z" fill="#EACC99"/>
<path d="M4.6875 10C5.20527 10 5.625 9.58027 5.625 9.0625C5.625 8.54473 5.20527 8.125 4.6875 8.125C4.16973 8.125 3.75 8.54473 3.75 9.0625C3.75 9.58027 4.16973 10 4.6875 10Z" fill="#EACC99"/>
<path d="M7.8125 10C8.33027 10 8.75 9.58027 8.75 9.0625C8.75 8.54473 8.33027 8.125 7.8125 8.125C7.29473 8.125 6.875 8.54473 6.875 9.0625C6.875 9.58027 7.29473 10 7.8125 10Z" fill="#EACC99"/>
<path d="M4.6875 13.125C5.20527 13.125 5.625 12.7053 5.625 12.1875C5.625 11.6697 5.20527 11.25 4.6875 11.25C4.16973 11.25 3.75 11.6697 3.75 12.1875C3.75 12.7053 4.16973 13.125 4.6875 13.125Z" fill="#EACC99"/>
<path d="M10.9375 10C11.4553 10 11.875 9.58027 11.875 9.0625C11.875 8.54473 11.4553 8.125 10.9375 8.125C10.4197 8.125 10 8.54473 10 9.0625C10 9.58027 10.4197 10 10.9375 10Z" fill="#EACC99"/>
<path d="M10.9375 13.125C11.4553 13.125 11.875 12.7053 11.875 12.1875C11.875 11.6697 11.4553 11.25 10.9375 11.25C10.4197 11.25 10 11.6697 10 12.1875C10 12.7053 10.4197 13.125 10.9375 13.125Z" fill="#EACC99"/>
<path d="M7.8125 13.125C8.33027 13.125 8.75 12.7053 8.75 12.1875C8.75 11.6697 8.33027 11.25 7.8125 11.25C7.29473 11.25 6.875 11.6697 6.875 12.1875C6.875 12.7053 7.29473 13.125 7.8125 13.125Z" fill="#EACC99"/>
</svg>
