<svg width="14" height="14" viewBox="0 0 14 14" fill="none" xmlns="http://www.w3.org/2000/svg">
<g clip-path="url(#clip0_3463_2151)">
<path d="M6.90134 6.74385C7.82782 6.74385 8.62997 6.41156 9.28558 5.75596C9.94098 5.10045 10.2734 4.29841 10.2734 3.37182C10.2734 2.44555 9.94109 1.6434 9.28548 0.987684C8.62987 0.33229 7.82771 0 6.90134 0C5.97475 0 5.1727 0.33229 4.5172 0.987791C3.86169 1.64329 3.5293 2.44545 3.5293 3.37182C3.5293 4.29841 3.86169 5.10056 4.5172 5.75606C5.17291 6.41146 5.97507 6.74385 6.90134 6.74385ZM5.0974 1.56788C5.60037 1.06491 6.1904 0.820418 6.90134 0.820418C7.61217 0.820418 8.2023 1.06491 8.70538 1.56788C9.20836 2.07096 9.45296 2.6611 9.45296 3.37182C9.45296 4.08276 9.20836 4.67278 8.70538 5.17586C8.2023 5.67894 7.61217 5.92344 6.90134 5.92344C6.19061 5.92344 5.60059 5.67884 5.0974 5.17586C4.59431 4.67289 4.34972 4.08276 4.34972 3.37182C4.34972 2.6611 4.59431 2.07096 5.0974 1.56788Z" fill="#EACC99"/>
<path d="M12.8004 10.7659C12.7815 10.4931 12.7433 10.1956 12.687 9.88133C12.6301 9.56474 12.557 9.26545 12.4694 8.99191C12.3788 8.70918 12.2559 8.42997 12.1037 8.16241C11.9459 7.8847 11.7605 7.64288 11.5524 7.44389C11.3348 7.23572 11.0685 7.06834 10.7604 6.94626C10.4534 6.82481 10.1132 6.76329 9.74933 6.76329C9.60641 6.76329 9.4682 6.82193 9.20128 6.99571C9.037 7.10284 8.84485 7.22674 8.63037 7.36378C8.44698 7.48064 8.19853 7.59012 7.89166 7.68924C7.59227 7.78612 7.28828 7.83525 6.98814 7.83525C6.68822 7.83525 6.38423 7.78612 6.08463 7.68924C5.77808 7.59022 5.52953 7.48074 5.34645 7.36389C5.134 7.22813 4.94174 7.10423 4.77501 6.99561C4.5083 6.82182 4.37009 6.76318 4.22717 6.76318C3.86316 6.76318 3.52307 6.82481 3.2162 6.94637C2.90837 7.06824 2.64188 7.23561 2.42409 7.444C2.21602 7.6431 2.03059 7.88481 1.87294 8.16241C1.72095 8.42997 1.5979 8.70907 1.50732 8.99202C1.41985 9.26556 1.34668 9.56474 1.28986 9.88133C1.23346 10.1951 1.19533 10.4928 1.17642 10.7663C1.15784 11.0336 1.14844 11.3119 1.14844 11.593C1.14844 12.3238 1.38075 12.9154 1.83887 13.3517C2.29132 13.7823 2.88989 14.0006 3.61803 14.0006H10.3591C11.087 14.0006 11.6856 13.7823 12.1382 13.3517C12.5964 12.9157 12.8287 12.3239 12.8287 11.5929C12.8286 11.3108 12.8191 11.0325 12.8004 10.7659ZM11.5725 12.7573C11.2735 13.0419 10.8766 13.1802 10.359 13.1802H3.61803C3.10031 13.1802 2.7034 13.0419 2.40454 12.7574C2.11134 12.4783 1.96886 12.0973 1.96886 11.593C1.96886 11.3306 1.97751 11.0716 1.99481 10.823C2.01169 10.579 2.04619 10.311 2.09735 10.0263C2.14787 9.74504 2.21217 9.4811 2.28865 9.24217C2.36203 9.01306 2.46211 8.78619 2.58623 8.56765C2.70468 8.35937 2.84097 8.18068 2.99136 8.03669C3.13203 7.90201 3.30934 7.79178 3.51826 7.7091C3.71149 7.63263 3.92863 7.59076 4.16437 7.58446C4.1931 7.59973 4.24426 7.62889 4.32715 7.68294C4.4958 7.79284 4.6902 7.91824 4.90511 8.05549C5.14735 8.20994 5.45946 8.34944 5.83234 8.46981C6.21355 8.59308 6.60234 8.65567 6.98825 8.65567C7.37416 8.65567 7.76306 8.59308 8.14406 8.46992C8.51726 8.34933 8.82925 8.20994 9.07182 8.05528C9.29175 7.91472 9.4807 7.79295 9.64935 7.68294C9.73224 7.629 9.7834 7.59973 9.81213 7.58446C10.048 7.59076 10.2651 7.63263 10.4585 7.7091C10.6673 7.79178 10.8446 7.90211 10.9852 8.03669C11.1356 8.18057 11.2719 8.35927 11.3904 8.56776C11.5146 8.78619 11.6148 9.01316 11.6881 9.24206C11.7646 9.48132 11.8291 9.74514 11.8795 10.0262C11.9305 10.3115 11.9651 10.5796 11.982 10.8231V10.8233C11.9994 11.071 12.0082 11.3299 12.0083 11.593C12.0082 12.0974 11.8657 12.4783 11.5725 12.7573Z" fill="#EACC99"/>
</g>
<defs>
<clipPath id="clip0_3463_2151">
<rect width="14" height="14" fill="white"/>
</clipPath>
</defs>
</svg>
